<svg version="1.1" id="Layer_1" xmlns="http://www.w3.org/2000/svg" xmlns:xlink="http://www.w3.org/1999/xlink" x="0px" y="0px"
	 width="100%" viewBox="0 0 1024 816" enable-background="new 0 0 1024 816" xml:space="preserve">
<path fill="#f1f0eb" opacity="1.000000" stroke="none" 
	d="
M205.387451,438.937622 
	C205.345215,411.404816 208.784195,384.752167 215.647491,358.548340 
	C228.567078,309.221832 252.688522,265.976685 286.960968,228.389084 
	C324.728638,186.968140 370.543304,157.860916 423.897278,140.889633 
	C447.748505,133.302826 472.318268,129.165146 497.385071,127.531464 
	C542.114990,124.616280 585.431580,130.844925 627.308777,146.582520 
	C675.138245,164.556961 715.970947,192.928360 750.123047,230.902435 
	C777.887390,261.773865 798.520081,296.919006 812.164001,336.085754 
	C818.959656,355.593567 823.601990,375.677246 826.380249,396.187286 
	C828.326660,410.556671 829.461243,424.954376 829.295349,439.457977 
	C828.599182,500.297546 811.818726,556.270203 778.498962,607.218323 
	C745.764832,657.270752 702.242371,695.026123 648.176941,720.451294 
	C617.210510,735.013733 584.616943,743.925476 550.483032,747.536011 
	C507.801270,752.050537 465.992462,748.192139 425.156769,735.280762 
	C354.400757,712.909180 298.565735,670.494019 257.247833,608.873779 
	C235.457870,576.376892 220.777786,540.875610 212.372116,502.760254 
	C207.773575,481.908203 205.355759,460.764893 205.387451,438.937622 
M539.906494,407.403076 
	C532.478333,415.438080 525.050171,423.473114 517.051331,432.125427 
	C495.090210,406.456146 471.989441,382.513367 441.559143,367.364777 
	C410.943298,352.123718 378.258118,347.825958 344.632202,349.044617 
	C428.797058,385.501648 481.738464,450.948914 517.282227,534.090637 
	C552.729980,450.797516 605.918762,385.657349 690.082214,349.524323 
	C688.261475,347.816223 686.510925,348.370789 684.913635,348.331329 
	C674.065918,348.063263 663.288330,349.026489 652.527832,350.269958 
	C629.813660,352.894684 608.160461,358.946686 587.971619,369.917023 
	C570.074829,379.641846 554.691589,392.557861 539.906494,407.403076 
M501.256989,273.694122 
	C498.516968,274.899719 495.662415,275.898682 493.055145,277.343750 
	C473.239288,288.326630 463.759705,311.357788 469.475861,334.395508 
	C474.805603,355.875885 494.069763,370.711823 516.863770,370.890411 
	C549.220520,371.143921 572.619751,342.314697 565.745117,310.665619 
	C559.342712,281.190369 532.109863,265.285492 501.256989,273.694122 
M332.849152,572.467651 
	C320.475037,575.086548 308.032440,577.269409 295.412872,578.313416 
	C288.947876,578.848267 282.474670,579.295471 276.018707,579.921448 
	C274.140442,580.103577 272.329590,580.860596 272.449860,583.286011 
	C272.561768,585.543640 274.371338,585.617310 276.040527,585.935730 
	C282.823090,587.229858 289.671661,586.820618 296.475220,586.533142 
	C326.827728,585.250671 356.660309,580.109253 386.393951,574.215820 
	C409.886414,569.559570 433.330536,569.238892 456.608612,575.719360 
	C471.394440,579.835754 484.899384,586.313538 496.648621,596.413086 
	C512.060059,609.660645 523.758423,609.377014 538.592163,595.949341 
	C540.807495,593.943970 543.175293,592.059631 545.667603,590.414673 
	C573.207458,572.238159 603.804382,567.735291 635.663391,572.282837 
	C669.406006,577.099182 702.689392,585.150940 736.932983,586.413757 
	C744.080383,586.677429 751.236816,587.275452 758.354431,585.952881 
	C760.085571,585.631165 761.716858,585.208313 761.737854,583.025940 
	C761.758301,580.898560 760.137878,580.280701 758.471008,579.860168 
	C757.510437,579.617981 756.505249,579.473206 755.514893,579.439697 
	C728.745117,578.532959 702.703247,573.195496 676.906860,566.443542 
	C654.342224,560.537537 631.889465,554.915588 608.088196,556.990295 
	C580.922485,559.358154 556.508484,568.095276 534.992859,584.837646 
	C523.163025,594.043091 511.338196,593.975525 499.356750,584.804260 
	C464.865112,558.402405 426.063324,551.458740 384.101990,559.961975 
	C367.146240,563.397949 350.731384,569.171204 332.849152,572.467651 
M667.869995,546.523987 
	C691.132507,552.038513 714.252258,558.592285 738.581116,556.673340 
	C736.020203,553.699524 732.565979,553.146362 729.305237,552.334229 
	C710.733337,547.708679 692.383057,542.391785 674.383728,535.838135 
	C662.010010,531.332886 649.261475,527.790283 636.174133,526.514648 
	C603.273682,523.307617 574.352051,532.821899 549.857971,555.222046 
	C547.016663,557.820496 544.024536,560.361023 542.102295,564.734253 
	C545.065552,563.036560 547.389221,561.754333 549.665710,560.393433 
	C571.273010,547.476624 594.805420,541.073486 619.811340,539.750977 
	C635.974243,538.896179 651.558350,542.423096 667.869995,546.523987 
M390.228119,527.788269 
	C385.859131,528.815979 381.428619,529.635498 377.131195,530.905396 
	C350.340302,538.822510 324.037415,548.386047 296.770142,554.706238 
	C295.837677,554.922363 294.307220,554.976624 294.468384,556.751465 
	C296.205322,558.190491 298.290955,557.669434 300.215851,557.647949 
	C322.704529,557.397339 344.404266,552.338623 365.991241,546.678467 
	C379.213837,543.211426 392.521973,540.088379 406.235535,539.778381 
	C434.026642,539.150085 459.945831,546.040100 484.001923,559.973083 
	C485.607819,560.903137 487.085876,562.366638 489.336029,562.084473 
	C489.105988,559.556091 487.438324,558.310547 486.042175,556.952515 
	C478.601685,549.715088 470.403534,543.433350 461.272858,538.509827 
	C439.187775,526.600952 415.615875,523.835510 390.228119,527.788269 
z"/>
<path fill="#f1f0eb" opacity="1.000000" stroke="none" 
	d="
M635.849365,80.021393 
	C635.843811,75.945786 635.843811,72.360542 635.843811,68.775291 
	C635.495850,68.696220 635.147888,68.617149 634.799927,68.538078 
	C631.639160,73.937988 628.508728,79.355957 625.308838,84.732552 
	C622.277344,89.826363 618.629272,89.926514 615.517517,84.940422 
	C612.092102,79.451775 608.806824,73.875717 604.516602,68.523544 
	C604.516602,75.239502 604.344299,81.961716 604.587463,88.668861 
	C604.713745,92.150459 603.630554,93.660645 600.078491,93.322960 
	C596.937134,93.024300 592.776428,94.277946 593.196716,88.809990 
	C594.143494,76.492828 592.891235,64.185661 593.207275,51.880669 
	C593.271179,49.392582 592.019043,45.647583 596.018494,44.864178 
	C599.857300,44.112225 603.389343,44.346748 605.761292,48.701115 
	C610.118896,56.700336 615.020508,64.403175 619.940430,72.639900 
	C623.544128,69.172806 625.168945,65.150986 627.387817,61.570488 
	C629.842957,57.608894 632.316895,53.612305 634.251099,49.387596 
	C636.218689,45.090027 639.414001,44.322594 643.576355,44.653740 
	C646.020691,44.848206 647.260193,45.754932 647.258423,48.278603 
	C647.248535,62.275143 647.241394,76.271820 647.299927,90.268181 
	C647.313782,93.574791 645.128479,93.626396 642.892151,93.370651 
	C640.237488,93.067078 636.335999,94.880775 635.991516,90.005775 
	C635.768860,86.853615 635.888611,83.677269 635.849365,80.021393 
z"/>
<path fill="#f1f0eb" opacity="1.000000" stroke="none" 
	d="
M447.923401,48.958565 
	C453.935638,56.509567 459.718842,63.767544 465.502045,71.025520 
	C465.896820,70.951866 466.291626,70.878212 466.686432,70.804565 
	C466.686432,64.099525 466.613434,57.393211 466.731110,50.690247 
	C466.766235,48.689564 465.748688,45.907112 468.509888,45.053074 
	C471.184631,44.225773 474.135040,44.259617 476.862640,45.162342 
	C478.379333,45.664307 478.238129,47.303383 478.241455,48.607788 
	C478.275787,62.083351 478.290283,75.559006 478.276794,89.034599 
	C478.275146,90.686386 478.359039,92.839966 476.228333,93.031837 
	C472.657166,93.353416 468.853912,93.953545 466.128265,90.486824 
	C460.782654,83.687828 455.397125,76.920212 450.017639,70.147926 
	C449.205719,69.125824 448.599335,67.873749 446.350586,67.156715 
	C446.350586,73.965599 446.376007,80.501968 446.342926,87.038048 
	C446.314178,92.708580 441.310303,95.579514 436.381622,92.822899 
	C434.760925,91.916443 434.814331,90.375137 434.811615,88.909378 
	C434.786713,75.600281 434.787689,62.291073 434.825684,48.982021 
	C434.830383,47.341671 434.760345,45.270695 436.872925,44.943794 
	C439.610107,44.520233 442.551086,43.860172 445.069885,45.683109 
	C446.116150,46.440342 446.829590,47.657524 447.923401,48.958565 
z"/>
<path fill="#f1f0eb" opacity="1.000000" stroke="none" 
	d="
M701.575195,86.608002 
	C701.424316,74.547226 701.382935,62.917912 701.062439,51.296295 
	C700.932861,46.597546 702.180054,44.212147 707.487000,44.590881 
	C713.439758,45.015701 719.449646,44.559505 725.426758,44.742474 
	C739.039368,45.159184 749.241455,55.732666 749.195435,69.193367 
	C749.149475,82.633858 739.387756,92.763390 725.736206,93.301064 
	C719.762512,93.536346 713.754089,93.085754 707.796814,93.480957 
	C702.754272,93.815468 700.584412,92.156746 701.575195,86.608002 
M736.800232,71.087532 
	C738.483826,57.963161 727.752808,52.959473 716.234314,54.643681 
	C714.320374,54.923538 713.309265,56.053627 713.313049,58.038872 
	C713.327148,65.351326 713.322327,72.663834 713.347961,79.976234 
	C713.352295,81.214462 713.821777,82.163139 715.071655,82.725327 
	C723.556030,86.541306 734.397522,81.152107 736.800232,71.087532 
z"/>
<path fill="#f1f0eb" opacity="1.000000" stroke="none" 
	d="
M846.173706,94.307373 
	C832.555481,92.888245 823.504395,84.187080 821.917664,71.415443 
	C820.568787,60.558163 828.005127,48.925858 838.662292,45.222607 
	C850.429626,41.133598 863.513550,45.111595 869.468018,55.065308 
	C874.591797,63.630562 875.289673,72.803436 870.350159,81.656487 
	C865.266968,90.766975 857.003601,94.715897 846.173706,94.307373 
M855.628967,56.759853 
	C854.901123,56.362263 854.203857,55.889454 853.440613,55.578960 
	C847.164978,53.026012 840.912109,54.680283 836.973999,59.903328 
	C833.214966,64.888832 833.223755,72.980217 836.993774,78.120392 
	C840.586487,83.018837 847.084473,84.835747 853.072327,82.616188 
	C862.584351,79.090317 864.248840,65.653671 855.628967,56.759853 
z"/>
<path fill="#f1f0eb" opacity="1.000000" stroke="none" 
	d="
M302.887299,51.258797 
	C308.566010,60.327663 307.776917,68.101120 300.336609,75.353470 
	C298.295471,77.343025 298.369568,78.785088 299.823761,80.883057 
	C302.350128,84.527863 304.709839,88.288193 307.204071,92.098900 
	C299.326385,95.110954 295.493011,93.833076 291.221771,87.668159 
	C288.802368,84.176102 287.525726,79.176857 281.458527,79.906876 
	C278.675903,80.241684 277.002686,80.953110 277.199799,84.030930 
	C277.252808,84.859283 277.190338,85.695099 277.179657,86.527473 
	C277.098511,92.839493 273.126099,95.457184 267.171539,93.215393 
	C265.371582,92.537720 265.166260,91.101326 265.161713,89.609741 
	C265.120209,75.958023 265.125671,62.306149 265.124359,48.654320 
	C265.124115,46.134232 266.006226,44.580742 268.921631,44.632420 
	C275.911835,44.756321 282.917694,44.473240 289.892365,44.834446 
	C294.839539,45.090649 299.181488,47.288033 302.887299,51.258797 
M281.801208,54.470718 
	C279.811707,54.678154 277.428650,54.693085 277.393585,57.388321 
	C277.342957,61.279160 276.349548,65.283470 278.199860,69.034431 
	C278.359741,69.358543 279.061310,69.563240 279.515472,69.570877 
	C282.967499,69.628983 286.457336,70.206337 289.822113,68.883675 
	C292.976959,67.643524 294.566162,65.142372 294.508881,61.959522 
	C294.446594,58.499550 292.531677,55.995968 289.002930,55.229904 
	C286.917969,54.777275 284.751465,54.699955 281.801208,54.470718 
z"/>
<path fill="#f1f0eb" opacity="1.000000" stroke="none" 
	d="
M239.144531,93.618652 
	C223.802826,96.098877 211.153091,88.847252 207.766556,75.927429 
	C205.229736,66.249382 207.386612,57.620979 214.622681,50.786659 
	C222.457596,43.386768 231.900696,41.727379 241.995331,45.374180 
	C253.499344,49.530140 258.897736,58.477463 258.317200,71.602905 
	C257.858521,81.972565 250.474426,90.593880 239.144531,93.618652 
M237.941910,82.632858 
	C244.426971,80.010445 246.649048,74.550751 246.512650,68.260056 
	C246.392166,62.703823 243.930344,57.973206 238.445633,55.522854 
	C233.249802,53.201561 226.368256,54.504574 222.769135,58.419060 
	C218.607590,62.945255 217.890015,71.556290 221.215988,77.056763 
	C224.531799,82.540443 229.919724,84.490723 237.941910,82.632858 
z"/>
<path fill="#f1f0eb" opacity="1.000000" stroke="none" 
	d="
M395.091614,93.364143 
	C381.068420,88.472397 374.063354,76.262398 377.373383,63.098114 
	C380.655457,50.045094 392.579742,42.113598 406.091064,43.996418 
	C419.500854,45.865089 428.845825,57.011822 428.266602,70.447548 
	C427.565857,86.703796 412.527405,97.263306 395.091614,93.364143 
M397.040985,55.301666 
	C390.647034,58.062111 388.295654,63.451057 388.637756,69.827766 
	C388.944427,75.544891 391.296814,80.514763 397.293121,82.698792 
	C402.970703,84.766762 409.224548,83.245071 412.782745,78.959465 
	C416.549377,74.422867 417.101593,65.648567 413.938477,60.595703 
	C410.589325,55.245674 405.058838,53.351273 397.040985,55.301666 
z"/>
<path fill="#f1f0eb" opacity="1.000000" stroke="none" 
	d="
M182.705276,73.426544 
	C168.144012,73.422318 168.010117,73.422729 168.053253,87.399704 
	C168.066879,91.807236 166.875870,93.578934 162.123383,93.542427 
	C157.368668,93.505920 155.691605,92.043137 155.788788,87.227478 
	C156.037186,74.916420 156.040833,62.591969 155.743469,50.282509 
	C155.624084,45.340946 157.855026,44.561771 162.065521,44.490765 
	C166.303604,44.419296 167.985245,45.665436 168.051834,50.095322 
	C168.244980,62.947296 168.397400,62.945004 181.055801,62.920513 
	C187.913620,62.907246 187.913666,62.907249 187.926407,55.977348 
	C187.928848,54.645851 187.923035,53.314293 187.934082,51.982872 
	C187.992599,44.920628 190.643951,42.970478 197.554703,44.687809 
	C199.661301,45.211300 200.120255,46.585499 200.122025,48.357723 
	C200.135803,62.171257 200.136276,75.984840 200.112061,89.798355 
	C200.104797,93.941315 196.992538,93.422943 194.399078,93.358772 
	C191.760925,93.293503 188.253387,94.376038 188.068451,89.898956 
	C187.910583,86.076859 187.843384,82.239052 188.002823,78.419327 
	C188.150497,74.881454 186.976837,72.966866 182.705276,73.426544 
z"/>
<path fill="#f1f0eb" opacity="1.000000" stroke="none" 
	d="
M529.737244,84.932343 
	C529.746094,73.121338 529.900024,61.797146 529.690552,50.479679 
	C529.612549,46.265530 530.767273,44.445595 535.297607,44.591362 
	C543.946167,44.869621 552.612854,44.787201 561.266663,44.602901 
	C564.925964,44.524975 566.282532,45.831432 566.292603,49.511650 
	C566.302612,53.188320 564.968384,54.604336 561.297729,54.435333 
	C556.812012,54.228809 552.280701,54.708233 547.821838,54.306271 
	C542.955627,53.867592 541.064453,55.636879 541.815369,60.411491 
	C541.939880,61.202816 541.832886,62.030537 541.832886,63.700012 
	C547.332642,63.700012 552.585388,63.816689 557.829956,63.659454 
	C561.392578,63.552643 563.343079,64.371185 563.423584,68.573059 
	C563.506653,72.907616 561.438538,73.527084 557.922852,73.385292 
	C553.601013,73.210960 549.266541,73.302216 544.938293,73.348488 
	C539.741150,73.404053 541.844543,77.426193 541.490906,79.989204 
	C541.080505,82.963737 542.785950,83.555275 545.472351,83.415955 
	C550.953369,83.131729 556.454529,83.255402 561.939880,83.028824 
	C566.093445,82.857262 567.392151,84.724739 567.360046,88.742500 
	C567.328613,92.686523 565.488403,93.468536 562.096191,93.415428 
	C553.940125,93.287766 545.780579,93.394630 537.622437,93.390167 
	C529.778503,93.385880 529.778503,93.376663 529.737244,84.932343 
z"/>
<path fill="#f1f0eb" opacity="1.000000" stroke="none" 
	d="
M669.269958,61.535858 
	C670.160034,64.000145 671.983765,63.661381 673.596863,63.682434 
	C677.255615,63.730190 680.920776,63.825397 684.573303,63.668663 
	C688.225586,63.511940 690.495728,64.074684 690.461914,68.712631 
	C690.429321,73.171814 688.173279,73.500717 684.810059,73.385529 
	C680.988831,73.254654 677.156555,73.444908 673.335022,73.318542 
	C670.449158,73.223114 668.966064,74.215164 669.072632,77.311768 
	C669.172180,80.202873 668.815063,83.342972 672.978943,83.434357 
	C678.296082,83.551064 683.626892,83.624466 688.934937,83.367470 
	C692.327026,83.203247 694.284424,83.750267 694.338806,87.777428 
	C694.390991,91.636391 693.548584,93.592857 689.123535,93.468597 
	C679.816345,93.207222 670.494751,93.307693 661.182434,93.463409 
	C657.949829,93.517464 656.741089,92.369400 656.768127,89.130898 
	C656.877747,75.991333 656.870422,62.850147 656.798096,49.710159 
	C656.779053,46.247852 657.874817,44.544434 661.688354,44.624325 
	C670.666443,44.812416 679.654236,44.825115 688.631836,44.624771 
	C692.571350,44.536850 693.320984,46.387520 693.360535,49.793247 
	C693.401428,53.323475 691.960571,54.524788 688.601501,54.405701 
	C684.282349,54.252579 679.953369,54.362625 675.628723,54.380783 
	C669.090271,54.408237 669.090332,54.416119 669.269958,61.535858 
z"/>
<path fill="#f1f0eb" opacity="1.000000" stroke="none" 
	d="
M343.031128,93.410515 
	C341.537750,93.404907 340.517120,93.529900 339.543457,93.369667 
	C337.261627,92.994164 334.024963,94.671677 333.004639,91.434387 
	C332.047546,88.397675 332.468842,85.295425 334.764313,82.539536 
	C341.370361,74.608246 347.806427,66.535248 354.294495,58.505989 
	C355.012329,57.617702 355.634796,56.652428 356.611084,55.291161 
	C350.398926,53.655064 344.457428,54.663563 338.604431,54.440643 
	C333.459595,54.244690 332.066681,52.611629 333.004150,47.712212 
	C333.370728,45.796383 334.267334,44.716747 336.292847,44.715446 
	C347.451050,44.708275 358.609283,44.685165 369.767487,44.684265 
	C371.153381,44.684155 372.598755,44.923981 372.930328,46.517849 
	C373.518341,49.344418 373.468323,52.014996 371.411957,54.503017 
	C365.473846,61.687672 359.672119,68.985939 353.879425,76.289253 
	C352.467102,78.069923 350.599579,79.578911 349.794922,82.624146 
	C356.199921,83.539658 362.458984,82.825516 368.660950,83.039894 
	C371.518158,83.138664 373.930054,83.345222 374.134613,87.177185 
	C374.414459,92.419289 373.786682,93.331711 368.507324,93.362679 
	C360.180145,93.411537 351.852600,93.398399 343.031128,93.410515 
z"/>
<path fill="#f1f0eb" opacity="1.000000" stroke="none" 
	d="
M784.557373,48.431618 
	C795.498230,42.002605 807.819946,42.201633 815.651855,48.934444 
	C817.266174,50.322269 820.816223,51.813152 817.671326,54.705566 
	C815.417480,56.778461 814.074158,61.625237 809.062683,57.500206 
	C802.835205,52.374210 794.636169,53.414417 789.805176,59.047043 
	C785.034485,64.609283 785.133972,73.846283 790.022766,79.260574 
	C794.994141,84.766182 802.906921,85.373817 809.325012,80.116966 
	C814.071655,76.229179 815.335144,81.106094 817.646484,82.920891 
	C820.583618,85.227036 818.026611,86.968086 816.415527,88.519814 
	C809.390991,95.285744 795.642334,96.347282 786.529602,90.887856 
	C776.547302,84.907486 771.980408,73.198402 775.216675,62.009865 
	C776.791809,56.564255 779.553406,51.954311 784.557373,48.431618 
z"/>
<path fill="#f1f0eb" opacity="1.000000" stroke="none" 
	d="
M524.873169,49.875217 
	C524.862549,53.990463 522.578796,54.429726 519.541138,54.466114 
	C510.069458,54.579578 510.048737,54.665001 510.024017,64.130074 
	C510.002747,72.277374 509.887787,80.428894 510.107025,88.570663 
	C510.234222,93.295357 507.488739,93.438263 503.991180,93.406227 
	C500.565796,93.374855 497.705536,93.404953 497.804352,88.621826 
	C497.996582,79.314552 497.698639,69.996635 497.921417,60.690739 
	C498.022949,56.450836 496.705139,54.369122 492.250549,54.851997 
	C490.938507,54.994221 489.592285,54.784443 488.263947,54.819687 
	C484.723419,54.913628 482.769958,53.873257 482.953430,49.675755 
	C483.125519,45.738033 484.603394,44.552959 488.402710,44.620064 
	C498.874542,44.805012 509.353394,44.756073 519.826660,44.607063 
	C523.364502,44.556728 525.247437,45.676037 524.873169,49.875217 
z"/>
<path fill="#f1f0eb" opacity="1.000000" stroke="none" 
	d="
M326.057068,57.022137 
	C326.027985,67.495026 325.839478,77.475876 326.047333,87.448479 
	C326.140808,91.933296 324.721863,93.649605 320.044647,93.511841 
	C315.819275,93.387390 313.640137,92.616554 313.746338,87.709007 
	C314.016083,75.243050 313.959625,62.764378 313.730988,50.296349 
	C313.650574,45.911369 315.202179,44.475304 319.523590,44.541416 
	C323.553131,44.603062 326.492493,44.988911 326.076416,50.043880 
	C325.899689,52.190758 326.054871,54.364960 326.057068,57.022137 
z"/>
<path fill="#f1f0eb" opacity="1.000000" stroke="none" 
	d="
M767.339844,78.987511 
	C767.336792,82.808342 767.200928,86.139061 767.371277,89.454041 
	C767.530579,92.553764 766.163940,93.848633 763.239380,93.354462 
	C760.390869,92.873123 755.825623,95.219101 755.775940,89.566406 
	C755.656128,75.939819 755.758850,62.311428 755.692261,48.684155 
	C755.668457,43.814938 759.183899,44.882355 762.011108,44.670856 
	C765.212585,44.431351 767.469360,44.947323 767.394897,49.075619 
	C767.218079,58.877728 767.339722,68.685219 767.339844,78.987511 
z"/>
</svg>