<svg version="1.1" id="Layer_1" xmlns="http://www.w3.org/2000/svg" xmlns:xlink="http://www.w3.org/1999/xlink" x="0px" y="0px"
	 width="100%" viewBox="0 0 1024 624" enable-background="new 0 0 1024 624" xml:space="preserve">
<path fill="#f1f0eb" opacity="1.000000" stroke="none" 
	d="
M441.511780,316.466736 
	C464.176086,317.075134 484.186615,323.434265 501.053009,338.481384 
	C506.608551,343.437683 514.741211,343.636108 520.285156,338.800720 
	C546.130676,316.258514 576.509583,313.508148 608.645630,318.178040 
	C628.589661,321.076263 647.839600,327.450134 667.832825,330.087799 
	C673.437256,330.827240 679.092407,331.185211 684.726379,331.695679 
	C685.886658,331.800812 687.073120,331.697266 688.217834,331.878052 
	C691.405273,332.381470 694.963928,332.929901 695.103149,337.011536 
	C695.249390,341.299805 691.511475,342.022186 688.411316,342.133392 
	C681.427612,342.383911 674.393799,342.529572 667.436646,341.991425 
	C645.832092,340.320404 624.754639,335.199127 603.413269,331.787079 
	C582.403992,328.428131 561.921692,329.874969 542.435059,339.227081 
	C536.820679,341.921600 532.045959,345.739838 527.429932,349.894470 
	C518.386230,358.034149 503.497986,358.475830 494.965027,350.224518 
	C480.505463,336.242310 462.666595,331.672363 443.496613,330.306854 
	C425.803894,329.046600 408.801697,333.605774 391.617340,336.657593 
	C373.424316,339.888489 355.214355,343.106934 336.607056,342.341553 
	C334.631317,342.260254 332.639099,341.959747 330.710297,341.517609 
	C328.422119,340.993134 326.756439,339.651337 326.743561,337.063660 
	C326.730499,334.438507 328.559570,333.344879 330.726654,332.576996 
	C334.593628,331.206787 338.659058,331.730316 342.621094,331.407349 
	C360.958466,329.912628 378.656128,325.159882 396.513702,321.193054 
	C411.175842,317.936005 425.953888,315.644287 441.511780,316.466736 
z"/>
<path fill="#f1f0eb" opacity="1.000000" stroke="none" 
	d="
M416.570557,219.648163 
	C436.235138,187.885437 464.271912,169.199127 501.019775,165.156754 
	C528.997742,162.079086 554.591553,169.945297 576.807129,187.302353 
	C603.382812,208.066025 617.845337,235.683197 621.384399,269.140533 
	C621.971069,274.686279 622.845276,280.206146 621.257141,285.866608 
	C618.297546,285.048340 618.917847,282.936951 618.664978,281.285004 
	C612.712402,242.399414 594.492798,211.313629 559.960510,191.282562 
	C522.468079,169.534378 476.169067,174.803391 443.881836,203.831421 
	C420.643494,224.724014 407.031586,250.680389 403.245667,281.740662 
	C403.065125,283.221863 402.993408,284.758728 400.034882,286.309174 
	C398.845093,261.971527 404.510956,240.259750 416.570557,219.648163 
z"/>
<path fill="#f1f0eb" opacity="1.000000" stroke="none" 
	d="
M491.482544,269.355347 
	C499.341339,273.733765 505.009338,280.064880 511.337524,287.162964 
	C526.618408,265.450470 548.306458,259.524872 573.317932,261.556519 
	C559.349731,268.302826 545.463257,275.051117 535.100891,287.067322 
	C524.899658,298.896729 517.898804,312.608551 512.206665,326.772186 
	C509.257141,326.391327 509.090088,324.455627 508.386047,323.061737 
	C504.261200,314.895172 500.482025,306.578827 495.540863,298.808472 
	C484.916992,282.101685 469.899506,271.124084 451.778717,263.911530 
	C450.491486,263.399170 448.687225,263.625092 448.094299,261.821808 
	C454.285736,258.228088 480.979797,263.101746 491.482544,269.355347 
z"/>
<path fill="#f1f0eb" opacity="1.000000" stroke="none" 
	d="
M683.262329,422.992249 
	C683.260803,425.820496 683.421509,428.165405 683.212097,430.476746 
	C683.003418,432.779419 684.500427,436.199341 681.259521,436.967773 
	C677.669922,437.818848 673.832275,438.222687 670.856873,434.415161 
	C663.377747,424.844666 655.609924,415.499573 647.940552,406.078247 
	C647.113831,405.062714 646.173279,404.139984 645.285522,403.174255 
	C644.761414,403.240753 644.237244,403.307251 643.713135,403.373749 
	C643.713135,408.550171 643.687134,413.726807 643.720825,418.902985 
	C643.751160,423.561920 643.746643,428.224640 643.942627,432.877899 
	C644.133240,437.404053 641.232788,437.415710 638.010193,437.358185 
	C634.934448,437.303253 631.913208,437.717560 631.938843,433.037476 
	C632.027100,416.893311 631.929565,400.748138 631.925903,384.603363 
	C631.925537,382.971222 631.678101,380.764801 633.940125,380.689819 
	C637.411621,380.574829 641.139038,379.122955 644.069824,382.828369 
	C651.398193,392.093292 658.939941,401.190033 666.446960,410.312408 
	C667.762695,411.911316 668.702209,413.967865 671.675293,414.969940 
	C671.675293,405.036499 671.791565,395.453766 671.616882,385.876373 
	C671.549072,382.157166 672.533997,380.448395 676.636047,380.510315 
	C683.234375,380.609955 683.244629,380.370056 683.249695,387.041809 
	C683.258606,398.859283 683.258606,410.676727 683.262329,422.992249 
z"/>
<path fill="#f1f0eb" opacity="1.000000" stroke="none" 
	d="
M583.807251,379.694458 
	C597.390869,380.961273 606.859131,388.439728 610.302551,400.264404 
	C613.879517,412.547760 610.248596,425.163513 600.212219,432.401764 
	C589.197754,440.345398 577.187622,440.465240 565.376953,434.325287 
	C554.432495,428.635712 550.214783,418.652405 550.957153,406.861206 
	C551.736938,394.477264 558.230225,385.734802 570.076965,381.341461 
	C574.359375,379.753326 578.827942,379.479034 583.807251,379.694458 
M566.122864,420.292297 
	C567.543518,421.683990 568.795898,423.323059 570.414307,424.423981 
	C576.931580,428.857269 583.885925,429.086029 590.702820,425.399414 
	C597.572937,421.684021 600.818237,413.964630 599.561340,405.749512 
	C598.415405,398.259796 593.288513,392.295593 586.056641,390.731262 
	C578.332214,389.060425 571.365845,390.646698 566.442261,397.302155 
	C561.121826,404.494110 561.076843,412.067230 566.122864,420.292297 
z"/>
<path fill="#f1f0eb" opacity="1.000000" stroke="none" 
	d="
M333.294983,379.729950 
	C342.130402,379.189240 350.050385,380.398346 356.753693,385.972351 
	C367.316711,394.755890 370.671539,409.452820 364.955505,421.710327 
	C359.257568,433.929169 345.566589,440.583832 331.588257,437.929077 
	C316.087402,434.985138 306.613342,423.925903 306.692413,408.867828 
	C306.772705,393.579254 316.647003,382.582489 333.294983,379.729950 
M332.395905,427.369019 
	C334.051392,427.494507 335.707092,427.729980 337.362366,427.727112 
	C346.153625,427.711823 353.139709,422.318390 355.306580,413.945435 
	C357.424164,405.762848 353.902985,396.903809 346.860229,392.694611 
	C337.419556,387.052368 325.032959,390.657196 320.400391,400.395172 
	C315.231140,411.261383 319.979309,422.563843 332.395905,427.369019 
z"/>
<path fill="#f1f0eb" opacity="1.000000" stroke="none" 
	d="
M387.804810,429.903748 
	C387.799500,415.266785 388.004700,401.113953 387.681061,386.973267 
	C387.562714,381.803741 389.334534,380.278229 394.291931,380.547516 
	C400.929932,380.908112 407.604187,380.537781 414.260223,380.645905 
	C423.998444,380.804016 431.479248,385.726227 434.268127,393.620667 
	C437.370209,402.401642 435.213013,410.190369 427.485962,416.803772 
	C425.505829,418.498566 425.272247,419.766754 426.724182,421.774170 
	C429.064056,425.009247 431.319031,428.308807 433.513733,431.644379 
	C434.476746,433.108002 436.019836,434.388367 435.613708,436.459869 
	C427.589081,438.784515 424.954926,437.927368 420.494965,431.595947 
	C419.536560,430.235382 418.237305,429.017822 417.638519,427.517517 
	C414.721771,420.209290 408.633698,420.855621 402.575958,421.232910 
	C400.276672,421.376068 399.352814,422.616150 399.368256,424.797791 
	C399.382385,426.794922 399.352997,428.792328 399.342316,430.789612 
	C399.306976,437.402466 399.169617,437.233124 392.673462,437.419983 
	C386.903351,437.585968 387.865204,433.801086 387.804810,429.903748 
M421.593109,407.013275 
	C426.121124,399.081390 423.181183,392.230164 414.298676,390.755859 
	C410.566315,390.136383 406.675751,390.441559 402.856232,390.386597 
	C400.323914,390.350128 399.341522,391.790039 399.360626,394.196106 
	C399.395020,398.520905 399.357208,402.846191 399.362854,407.171295 
	C399.364899,408.726593 399.508179,410.595825 401.438171,410.559143 
	C408.099304,410.432495 415.168121,412.677399 421.593109,407.013275 
z"/>
<path fill="#f1f0eb" opacity="1.000000" stroke="none" 
	d="
M377.913940,317.126801 
	C368.214325,319.247803 358.874512,320.806030 349.312256,320.289398 
	C347.822662,320.208923 346.308441,320.136139 344.862732,319.808105 
	C343.182007,319.426727 341.616425,318.626190 341.657593,316.554108 
	C341.693481,314.748077 343.071777,313.945312 344.592346,313.620667 
	C347.183807,313.067383 349.808655,312.657867 352.430847,312.263397 
	C370.132324,309.600372 386.646179,302.579987 403.899231,298.254395 
	C429.182281,291.915527 453.349579,293.551941 476.092438,307.301239 
	C484.359558,312.299103 490.852325,319.143738 496.894867,326.506622 
	C497.488831,327.230347 498.327454,327.985199 497.407349,329.774445 
	C492.787079,327.060028 488.209869,324.298584 483.565460,321.655243 
	C466.414825,311.893921 448.045013,306.532379 428.231293,307.579102 
	C413.240814,308.371002 398.628510,311.777954 384.137512,315.599304 
	C382.208282,316.108032 380.264587,316.561981 377.913940,317.126801 
z"/>
<path fill="#f1f0eb" opacity="1.000000" stroke="none" 
	d="
M524.517334,327.251068 
	C537.214722,310.519196 553.617126,300.174866 573.885193,296.172699 
	C591.469482,292.700470 608.637756,295.431488 625.594604,300.295044 
	C642.187744,305.054352 658.328857,311.566193 675.762573,313.070221 
	C677.893677,313.254089 680.433838,313.978485 680.239441,316.789825 
	C680.028992,319.834564 677.241516,320.073761 674.952087,320.204712 
	C663.905518,320.836578 653.085754,319.325562 642.349915,316.753693 
	C627.334961,313.156647 612.382568,309.375031 596.896423,307.968872 
	C578.257690,306.276459 560.875488,310.097076 544.266052,318.224396 
	C538.434937,321.077667 532.915039,324.497131 527.521545,328.122742 
	C526.545227,328.779053 524.757507,331.075989 524.517334,327.251068 
z"/>
<path fill="#f1f0eb" opacity="1.000000" stroke="none" 
	d="
M286.240234,433.767761 
	C284.866577,439.678711 280.534332,436.844818 277.538330,437.132080 
	C274.310822,437.441528 274.735016,434.530792 274.708130,432.438934 
	C274.643921,427.440491 274.574585,422.438293 274.701904,417.442566 
	C274.778320,414.443024 273.600494,413.252350 270.587738,413.311157 
	C264.257874,413.434753 257.921906,413.441498 251.592453,413.307343 
	C248.276581,413.237091 247.208008,414.732178 247.283401,417.850006 
	C247.408218,423.012512 247.191498,428.183380 247.320480,433.345673 
	C247.433273,437.860657 244.317795,437.297729 241.511795,437.317810 
	C238.661575,437.338165 235.681656,437.761871 235.705627,433.309204 
	C235.793594,416.979095 235.767242,400.648254 235.741943,384.317749 
	C235.734741,379.667847 239.154388,380.718750 241.794556,380.636200 
	C244.424118,380.554016 247.390274,380.100616 247.309082,384.336609 
	C247.216507,389.166931 247.416946,394.003448 247.296432,398.832458 
	C247.221024,401.854187 248.514984,403.032867 251.452286,402.999023 
	C257.783630,402.926025 264.118042,402.902527 270.448090,403.022125 
	C273.780029,403.085022 274.805756,401.508331 274.702301,398.418304 
	C274.562988,394.257141 274.951752,390.064606 274.608490,385.927490 
	C274.209106,381.114624 276.707672,380.531433 280.631561,380.517914 
	C284.505859,380.504608 286.376617,381.417297 286.322388,385.799683 
	C286.126648,401.627991 286.255798,417.460358 286.240234,433.767761 
z"/>
<path fill="#f1f0eb" opacity="1.000000" stroke="none" 
	d="
M775.061157,437.354645 
	C773.072388,437.351868 771.571045,437.282776 770.076904,437.357788 
	C767.329163,437.495758 766.103577,436.182129 766.109314,433.500275 
	C766.144287,417.188385 766.172546,400.876495 766.185852,384.564606 
	C766.188477,381.374146 767.942322,380.136688 770.906860,380.138885 
	C781.726074,380.146881 792.545349,380.180634 803.364380,380.140045 
	C807.448975,380.124695 808.244141,382.413696 808.182495,385.961945 
	C808.119568,389.587891 806.345764,390.434845 803.137878,390.372253 
	C796.482117,390.242371 789.818237,390.476868 783.164734,390.299194 
	C779.505005,390.201477 777.883728,391.584564 778.202332,395.250580 
	C778.302795,396.406891 778.312927,397.589783 778.193909,398.742920 
	C777.821533,402.351715 779.218933,403.881165 783.001526,403.718201 
	C788.484497,403.482025 793.987549,403.753021 799.477844,403.626678 
	C802.669922,403.553223 804.993652,403.864532 804.951355,408.019135 
	C804.909485,412.130798 803.235474,413.582306 799.193176,413.377960 
	C794.046143,413.117828 788.871399,413.452942 783.716858,413.282013 
	C779.680176,413.148163 777.786499,414.725067 778.155212,418.854523 
	C778.287903,420.340698 778.267883,421.855865 778.154785,423.345459 
	C777.903748,426.652222 779.494812,427.707642 782.633240,427.647461 
	C789.955017,427.507050 797.290283,427.798248 804.601440,427.483124 
	C808.559265,427.312500 809.340881,428.960449 809.389709,432.446228 
	C809.440674,436.090820 808.253479,437.470459 804.515076,437.399139 
	C794.863892,437.214996 785.206604,437.347351 775.061157,437.354645 
z"/>
<path fill="#f1f0eb" opacity="1.000000" stroke="none" 
	d="
M524.322998,380.313904 
	C525.727844,380.360779 526.749146,380.306030 527.714600,380.512421 
	C529.871277,380.973541 533.078674,379.347137 534.011353,382.003906 
	C535.091675,385.080994 534.825012,388.471283 532.434631,391.402496 
	C524.129517,401.586700 515.946716,411.870728 507.734589,422.130554 
	C506.744141,423.367920 505.101837,424.265350 505.472046,427.095032 
	C511.961365,427.095032 518.534973,427.095093 525.108521,427.095001 
	C527.105347,427.094971 529.105164,427.164490 531.098328,427.079132 
	C534.877380,426.917389 536.344727,428.509094 536.362427,432.424103 
	C536.381104,436.556946 534.579712,437.433685 530.909607,437.391205 
	C518.597473,437.248779 506.282166,437.396423 493.968872,437.315674 
	C491.960480,437.302521 489.177216,438.340759 488.215485,435.715912 
	C487.164856,432.848450 487.489838,429.856934 489.593079,427.253571 
	C495.970642,419.359344 502.330078,411.449493 508.603424,403.472473 
	C511.542145,399.735657 515.011108,396.362152 517.189514,392.232605 
	C515.741943,389.883240 513.749817,390.413971 512.016846,390.397827 
	C505.694122,390.338959 499.368774,390.297363 493.047821,390.422485 
	C489.881622,390.485168 488.539490,389.294586 488.613739,386.040771 
	C488.684570,382.935730 488.826904,380.744537 492.988464,380.506195 
	C503.305603,379.915436 513.605408,380.194122 524.322998,380.313904 
z"/>
<path fill="#f1f0eb" opacity="1.000000" stroke="none" 
	d="
M730.330505,410.001160 
	C730.331543,417.657623 730.078613,424.826538 730.422913,431.966675 
	C730.650208,436.680664 728.501038,437.402161 724.468689,437.463074 
	C720.156616,437.528168 718.598083,436.185303 718.690186,431.747742 
	C718.935364,419.936127 718.607849,408.112885 718.836853,396.300659 
	C718.917603,392.139221 717.233154,390.506836 713.376099,390.505005 
	C710.882507,390.503815 708.377930,390.404572 705.898132,390.600586 
	C702.777893,390.847260 700.669556,390.285095 700.745605,386.474426 
	C700.809509,383.273499 700.745483,380.763794 705.274902,380.545868 
	C718.085571,379.929413 730.883789,380.637817 743.683838,380.411346 
	C747.079590,380.351288 749.014038,381.380890 748.786987,385.260101 
	C748.580139,388.794647 747.586487,390.477386 743.499023,390.502167 
	C730.328247,390.581879 730.329346,390.766541 730.329773,404.009033 
	C730.329834,405.839813 730.330139,407.670624 730.330505,410.001160 
z"/>
<path fill="#f1f0eb" opacity="1.000000" stroke="none" 
	d="
M501.026398,269.189636 
	C492.186249,261.314026 491.237457,249.137665 498.564545,241.509018 
	C505.026764,234.780869 513.682861,234.030380 521.067200,239.558029 
	C528.319397,244.986755 530.322144,255.688538 525.611694,263.842346 
	C521.345703,271.226746 512.366638,274.272369 504.446259,270.988495 
	C503.376251,270.544861 502.378296,269.927521 501.026398,269.189636 
z"/>
<path fill="#f1f0eb" opacity="1.000000" stroke="none" 
	d="
M456.024872,418.998749 
	C456.036865,407.700104 456.259247,396.895325 455.965454,386.104584 
	C455.829285,381.102539 458.266357,380.561676 462.330017,380.430756 
	C466.744110,380.288544 468.118866,381.926727 468.070984,386.195648 
	C467.899536,401.478485 467.853729,416.766479 468.077637,432.047882 
	C468.154144,437.268036 465.281433,437.323517 461.425873,437.428864 
	C457.313629,437.541229 455.695862,436.110687 455.965393,431.954987 
	C456.233673,427.818909 456.024109,423.651825 456.024872,418.998749 
z"/>
<path fill="#f1f0eb" opacity="1.000000" stroke="none" 
	d="
M378.661591,480.311066 
	C333.243713,480.324158 288.291779,480.348541 243.340134,480.252380 
	C241.183044,480.247772 237.325363,481.721771 237.233505,478.244781 
	C237.139969,474.704071 241.013855,475.923828 243.224625,475.919678 
	C287.510376,475.836548 331.796326,475.850128 376.082214,475.846893 
	C377.080811,475.846802 378.083618,475.825958 379.076996,475.906738 
	C380.468903,476.019928 381.821045,476.360870 381.852295,478.109100 
	C381.884247,479.899719 380.532928,480.182892 378.661591,480.311066 
z"/>
<path fill="#f1f0eb" opacity="1.000000" stroke="none" 
	d="
M786.999634,480.336121 
	C747.195801,480.332886 707.891846,480.352875 668.588074,480.264557 
	C666.349915,480.259552 662.420410,481.556519 662.304871,478.336426 
	C662.160645,474.314697 666.318665,475.917969 668.603516,475.912018 
	C712.736877,475.797089 756.870544,475.808868 801.004150,475.796234 
	C802.003113,475.795929 803.005127,475.768768 804.000366,475.834625 
	C805.584839,475.939545 807.133362,476.270752 806.960571,478.339386 
	C806.813904,480.095703 805.352417,480.281158 803.986755,480.291534 
	C798.491211,480.333344 792.995300,480.325378 786.999634,480.336121 
z"/>
<path fill="#f1f0eb" opacity="1.000000" stroke="none" 
	d="
M429.016907,483.023193 
	C422.897034,494.849670 421.108612,493.266632 416.299133,483.340515 
	C415.455902,481.600189 414.225861,480.047241 412.086578,478.570160 
	C412.086578,482.466400 412.124786,486.363190 412.070740,490.258698 
	C412.043030,492.257294 412.144348,494.547729 409.240082,494.597626 
	C406.468475,494.645264 406.115417,492.572479 406.109253,490.453827 
	C406.087891,483.138947 406.085266,475.823639 406.149658,468.509155 
	C406.162506,467.049530 406.173157,465.373444 408.046173,464.855804 
	C410.110382,464.285309 411.621307,465.180695 412.652466,466.932373 
	C415.099304,471.088989 417.487549,475.280243 419.951599,479.426514 
	C420.526886,480.394501 421.309723,481.239136 422.168518,482.365387 
	C425.122467,480.691589 426.144928,477.784454 427.678589,475.340332 
	C429.533813,472.383972 431.179474,469.296661 433.012390,466.325592 
	C433.888733,464.905060 435.317932,464.487152 436.937622,464.858307 
	C438.641235,465.248718 438.776520,466.730072 438.787933,468.007050 
	C438.857727,475.826050 438.861633,483.646240 438.800568,491.465363 
	C438.786530,493.264435 438.101715,494.780823 435.875336,494.704651 
	C433.742981,494.631744 433.002991,493.220184 432.980377,491.371490 
	C432.925934,486.922791 432.962769,482.472961 432.157776,477.784973 
	C431.171844,479.428070 430.185913,481.071136 429.016907,483.023193 
z"/>
<path fill="#f1f0eb" opacity="1.000000" stroke="none" 
	d="
M496.829529,465.681549 
	C502.521942,463.956146 508.059570,464.209991 513.436951,465.029907 
	C520.472839,466.102722 525.150208,472.085083 525.302979,479.072662 
	C525.470520,486.737396 521.353088,492.386169 514.119873,494.163025 
	C509.376648,495.328247 504.529602,495.121338 499.700836,494.808167 
	C497.330505,494.654480 495.999115,493.397095 496.063507,490.967194 
	C496.283539,482.663818 495.330200,474.336914 496.829529,465.681549 
M506.511932,469.355621 
	C503.348145,469.038177 501.945740,470.402222 502.057404,473.639069 
	C502.194458,477.610626 502.053375,481.591064 502.107391,485.566650 
	C502.127045,487.013336 501.968384,488.560791 503.684235,489.418518 
	C508.104218,491.628174 516.129578,488.847687 518.463928,484.240326 
	C522.273743,476.720734 517.282776,470.033783 506.511932,469.355621 
z"/>
<path fill="#f1f0eb" opacity="1.000000" stroke="none" 
	d="
M611.014832,492.195923 
	C604.634155,486.374207 603.016418,479.433136 606.194336,472.653015 
	C608.810913,467.070343 616.057617,463.205048 622.351929,464.034637 
	C630.305115,465.082855 635.482239,470.011841 636.737549,477.730652 
	C638.374451,487.796600 628.671936,496.934967 618.269958,495.045898 
	C615.823853,494.601654 613.401672,493.920807 611.014832,492.195923 
M624.476501,489.352539 
	C625.197876,488.947083 625.976013,488.616974 626.631409,488.123779 
	C630.543518,485.179443 632.128235,480.229156 630.322632,475.723206 
	C628.517700,471.219116 624.943787,469.144806 620.120361,469.350952 
	C615.490234,469.548798 611.854431,472.735626 610.669617,477.492157 
	C608.842590,484.827148 614.896179,490.440613 624.476501,489.352539 
z"/>
<path fill="#f1f0eb" opacity="1.000000" stroke="none" 
	d="
M468.207428,476.805969 
	C470.658752,476.857727 472.657898,476.847229 474.646881,476.983978 
	C476.165466,477.088440 477.126556,477.937439 477.087433,479.556183 
	C477.047913,481.191650 475.993591,481.936554 474.499725,481.999542 
	C472.008026,482.104614 469.510864,482.147827 467.017181,482.117950 
	C464.393311,482.086578 463.008972,483.100494 462.990906,485.924011 
	C462.972931,488.739136 464.261780,489.791809 466.950745,489.725800 
	C470.109802,489.648224 473.273071,489.718323 476.434113,489.755615 
	C478.015106,489.774261 479.518707,490.044739 479.716858,492.019257 
	C479.914917,493.992950 478.559448,494.774658 476.953247,494.804443 
	C471.301392,494.909302 465.645538,494.924316 459.993652,494.827942 
	C458.061249,494.795013 456.965637,493.503845 456.956635,491.550598 
	C456.920502,483.731506 456.924530,475.912201 456.933411,468.092957 
	C456.936279,465.550323 458.377411,464.618652 460.776672,464.646820 
	C465.767487,464.705414 470.759338,464.667755 475.750366,464.714386 
	C477.287781,464.728790 478.910614,464.873352 478.935211,466.967957 
	C478.959656,469.046143 477.382111,469.279114 475.818787,469.308990 
	C473.157410,469.359894 470.494354,469.358673 467.832397,469.334625 
	C465.368256,469.312378 463.133698,469.355469 462.997437,472.786835 
	C462.855865,476.351715 464.879333,476.992706 468.207428,476.805969 
z"/>
<path fill="#f1f0eb" opacity="1.000000" stroke="none" 
	d="
M566.760620,469.910492 
	C573.002930,463.882812 579.859009,462.415863 586.538330,465.676514 
	C588.408569,466.589539 591.716370,467.196228 590.214233,470.389130 
	C588.728394,473.547577 586.439697,471.598083 584.362305,470.553070 
	C579.314514,468.013733 573.163635,469.905579 570.589539,474.663788 
	C567.943420,479.555145 569.622620,485.711823 574.519348,488.515686 
	C578.158508,490.599487 581.879333,490.370697 585.342407,488.064423 
	C587.341797,486.732880 589.120300,486.427948 590.309875,488.773254 
	C591.474976,491.070526 589.439636,492.035706 587.945129,492.980011 
	C582.150696,496.641205 573.339539,495.795837 568.437073,491.182465 
	C562.832153,485.908081 562.111816,477.993866 566.760620,469.910492 
z"/>
<path fill="#f1f0eb" opacity="1.000000" stroke="none" 
	d="
M515.287903,125.001007 
	C515.281616,130.158875 515.312683,134.818192 515.255310,139.476425 
	C515.218811,142.434509 514.177429,145.039322 510.810760,144.923340 
	C507.577881,144.811981 506.464142,142.341492 506.487976,139.300644 
	C506.559662,130.149750 506.593445,120.998566 506.658447,111.847610 
	C506.679230,108.918488 507.413330,106.292252 510.984375,106.439217 
	C514.338257,106.577240 515.312683,108.998260 515.288025,112.022751 
	C515.254211,116.182220 515.284851,120.342224 515.287903,125.001007 
z"/>
<path fill="#f1f0eb" opacity="1.000000" stroke="none" 
	d="
M604.832703,177.113159 
	C602.385254,179.452591 599.914551,180.375305 597.511536,178.066376 
	C594.964417,175.618942 596.359009,173.141998 598.276428,171.054031 
	C603.794006,165.045822 609.363464,159.084625 614.968628,153.158066 
	C616.905701,151.110016 619.301758,149.409271 621.899780,151.750946 
	C624.607666,154.191528 623.419373,156.933121 621.346375,159.217590 
	C615.976746,165.135284 610.526245,170.979599 604.832703,177.113159 
z"/>
<path fill="#f1f0eb" opacity="1.000000" stroke="none" 
	d="
M416.527649,163.478592 
	C419.122070,166.323364 421.604431,168.803513 423.818329,171.503784 
	C425.521118,173.580688 426.283539,176.121307 423.942413,178.201065 
	C421.674438,180.215820 419.149445,179.527863 417.257751,177.500000 
	C411.463470,171.288528 405.757782,164.992432 400.116028,158.641830 
	C398.306458,156.604904 397.583618,154.053650 399.761719,151.909851 
	C402.021179,149.685928 404.445679,150.713974 406.362640,152.664352 
	C409.747314,156.108139 412.994995,159.686630 416.527649,163.478592 
z"/>
<path fill="#f1f0eb" opacity="1.000000" stroke="none" 
	d="
M652.530701,242.448730 
	C657.833374,241.478943 662.698792,240.474289 667.606506,239.760712 
	C670.265991,239.374023 672.774597,240.077728 673.167664,243.283234 
	C673.540222,246.321991 671.640808,247.795715 668.855530,248.331360 
	C661.214844,249.800781 653.579773,251.300705 645.930664,252.724731 
	C642.860474,253.296295 640.029114,252.755249 639.305908,249.239807 
	C638.541138,245.522446 641.303101,244.355896 644.260254,243.772110 
	C646.857361,243.259415 649.492615,242.939941 652.530701,242.448730 
z"/>
<path fill="#f1f0eb" opacity="1.000000" stroke="none" 
	d="
M370.372345,251.809067 
	C364.442566,250.599716 358.918671,249.518265 353.403503,248.393906 
	C350.543304,247.810776 348.208771,246.519882 348.782288,243.110504 
	C349.378601,239.565491 352.285187,239.386322 354.986023,239.825500 
	C362.830566,241.101074 370.657867,242.503998 378.451477,244.059753 
	C381.043427,244.577164 383.290619,246.206360 382.742706,249.223526 
	C382.171631,252.368484 379.678741,253.322250 376.668457,252.892120 
	C374.700104,252.610855 372.743622,252.246384 370.372345,251.809067 
z"/>
<path fill="#f1f0eb" opacity="1.000000" stroke="none" 
	d="
M547.280457,485.899292 
	C547.225098,488.374390 547.231689,490.370361 547.099060,492.356995 
	C546.988220,494.015717 545.814880,494.582520 544.331787,494.563019 
	C542.826599,494.543213 541.702576,493.893951 541.691162,492.230804 
	C541.632751,483.756989 541.585327,475.282654 541.620605,466.808899 
	C541.627686,465.122284 542.916748,464.708679 544.416565,464.712341 
	C546.639526,464.717773 547.239502,466.084473 547.246033,467.965424 
	C547.266357,473.782288 547.271179,479.599243 547.280457,485.899292 
z"/>
<path fill="#f1f0eb" opacity="1.000000" stroke="none" 
	d="
M473.315216,456.032654 
	C474.128052,456.471710 475.067139,456.973175 475.005035,457.250153 
	C474.325989,460.278046 468.722656,463.203125 465.079498,462.289734 
	C466.803009,458.909210 468.690277,456.026184 473.315216,456.032654 
z"/>
</svg>